<svg xmlns="http://www.w3.org/2000/svg" viewBox="0 0 256 256" width="256" height="256">
  <defs>
    <linearGradient id="bg" x1="0" y1="0" x2="1" y2="1">
      <stop offset="0%" stop-color="#0a0d10"/>
      <stop offset="100%" stop-color="#11161b"/>
    </linearGradient>
    <linearGradient id="hub" x1="0" y1="0" x2="0" y2="1">
      <stop offset="0%" stop-color="#ffb000"/>
      <stop offset="100%" stop-color="#fb923c"/>
    </linearGradient>
    <radialGradient id="glow" cx="0.5" cy="0.5" r="0.5">
      <stop offset="0%" stop-color="#ffb000" stop-opacity="0.45"/>
      <stop offset="100%" stop-color="#ffb000" stop-opacity="0"/>
    </radialGradient>
  </defs>
  <rect width="256" height="256" fill="url(#bg)"/>
  <circle cx="128" cy="128" r="80" fill="url(#glow)"/>
  <g stroke="#2f3a47" stroke-width="1.4" fill="none" opacity="0.7">
    <line x1="128" y1="128" x2="128" y2="38"/>
    <line x1="128" y1="128" x2="206" y2="83"/>
    <line x1="128" y1="128" x2="206" y2="173"/>
    <line x1="128" y1="128" x2="128" y2="218"/>
    <line x1="128" y1="128" x2="50"  y2="173"/>
    <line x1="128" y1="128" x2="50"  y2="83"/>
  </g>
  <circle cx="128" cy="38"  r="11" fill="#3b82f6"/>
  <circle cx="206" cy="83"  r="11" fill="#06b6d4"/>
  <circle cx="206" cy="173" r="11" fill="#f59e0b"/>
  <circle cx="128" cy="218" r="11" fill="#d946ef"/>
  <circle cx="50"  cy="173" r="11" fill="#f59e0b"/>
  <circle cx="50"  cy="83"  r="11" fill="#06b6d4"/>
  <polygon points="128,90 161,109 161,147 128,166 95,147 95,109" fill="url(#hub)"/>
  <polygon points="128,103 150,116 150,140 128,153 106,140 106,116" fill="none" stroke="#0a0d10" stroke-width="2.5"/>
  <polygon points="128,116 138,128 128,140 118,128" fill="#0a0d10"/>
</svg>
