<svg xmlns="http://www.w3.org/2000/svg" viewBox="0 0 256 256" width="256" height="256">
  <defs>
    <linearGradient id="bg" x1="0" y1="0" x2="1" y2="1">
      <stop offset="0%" stop-color="#ffb000"/>
      <stop offset="100%" stop-color="#fb923c"/>
    </linearGradient>
  </defs>
  <rect width="256" height="256" fill="url(#bg)"/>
  <g stroke="#0a0d10" stroke-width="2.5" fill="none" opacity="0.5">
    <line x1="128" y1="128" x2="128" y2="42"/>
    <line x1="128" y1="128" x2="202" y2="86"/>
    <line x1="128" y1="128" x2="202" y2="170"/>
    <line x1="128" y1="128" x2="128" y2="214"/>
    <line x1="128" y1="128" x2="54"  y2="170"/>
    <line x1="128" y1="128" x2="54"  y2="86"/>
  </g>
  <g stroke="#0a0d10" stroke-width="3">
    <circle cx="128" cy="42"  r="13" fill="#1d4ed8"/>
    <circle cx="202" cy="86"  r="13" fill="#0891b2"/>
    <circle cx="202" cy="170" r="13" fill="#fef3c7"/>
    <circle cx="128" cy="214" r="13" fill="#a21caf"/>
    <circle cx="54"  cy="170" r="13" fill="#fef3c7"/>
    <circle cx="54"  cy="86"  r="13" fill="#0891b2"/>
  </g>
  <polygon points="128,82 168,105 168,151 128,174 88,151 88,105" fill="#0a0d10"/>
  <polygon points="128,98 154,113 154,143 128,158 102,143 102,113" fill="none" stroke="#ffb000" stroke-width="2.5"/>
  <polygon points="128,113 142,128 128,143 114,128" fill="#ffb000"/>
</svg>
